<svg width="200" height="150" viewBox="0 0 200 150" fill="none" xmlns="http://www.w3.org/2000/svg">
<rect x="40" y="30" width="120" height="90" rx="8" fill="#F1F5F9"/>
<path d="M100 55C108.284 55 115 61.7157 115 70C115 78.2843 108.284 85 100 85C91.7157 85 85 78.2843 85 70C85 61.7157 91.7157 55 100 55Z" fill="#CBD5E1"/>
<path d="M70 105C70 93.9543 78.9543 85 90 85H110C121.046 85 130 93.9543 130 105V110H70V105Z" fill="#CBD5E1"/>
<path d="M145 60L155 70L145 80" stroke="#94A3B8" stroke-width="3" stroke-linecap="round" stroke-linejoin="round"/>
<path d="M55 80L45 70L55 60" stroke="#94A3B8" stroke-width="3" stroke-linecap="round" stroke-linejoin="round"/>
</svg>
