<svg width="100" height="100" viewBox="0 0 100 100" fill="none" xmlns="http://www.w3.org/2000/svg">
<path d="M50 8.33331C26.9167 8.33331 8.33337 26.9166 8.33337 50C8.33337 73.0833 26.9167 91.6666 50 91.6666C73.0834 91.6666 91.6667 73.0833 91.6667 50C91.6667 26.9166 73.0834 8.33331 50 8.33331Z" fill="#14B8A6"/>
<path d="M45.8333 41.6667L37.5 58.3334H62.5L54.1667 41.6667C52.75 39.5 50.8333 37.5 47.9167 37.5C46.8333 37.5 45.8333 41.6667 45.8333 41.6667Z" fill="#E6FFFA"/>
<path d="M66.6666 62.5C66.6666 66.8333 63.25 70.8333 58.3333 70.8333C53.4166 70.8333 50 66.8333 50 62.5C50 58.1667 53.4166 54.1667 58.3333 54.1667C63.25 54.1667 66.6666 58.1667 66.6666 62.5Z" fill="#FFFFFF"/>
</svg>
